<svg xmlns="http://www.w3.org/2000/svg" viewBox="0 0 750 471">
  <rect width="750" height="471" fill="none"/>
  <path d="M278.2 334.2h-60.6l37.9-233.9h60.6l-37.9 233.9z" fill="#00579f"/>
  <path d="M524.3 104.7c-12-4.5-30.7-9.4-54.1-9.4-59.6 0-101.6 31.7-101.9 77.1-.4 33.6 30 52.3 52.8 63.5 23.5 11.5 31.4 18.8 31.3 29.1-.2 15.7-18.8 22.9-36.1 22.9-24.1 0-36.9-3.5-56.7-12.2l-7.8-3.7-8.4 52.2c14.1 6.5 40.1 12.1 67.1 12.4 63.4 0 104.6-31.3 105.1-79.8.3-26.6-15.9-46.8-50.8-63.5-21.1-10.8-34.1-18-33.9-29 0-9.7 10.9-20.1 34.6-20.1 19.7-.3 34 4.2 45.1 8.9l5.4 2.7 8.3-51.1z" fill="#00579f"/>
  <path d="M661.6 100.3h-46.6c-14.4 0-25.2 4.2-31.5 19.4l-89.4 213.5h63.4s10.3-28.7 12.7-35h77.4c1.8 8.2 7.3 35 7.3 35h56l-48.9-232.9h-.4zm-74.6 150.4c5-13.5 24.2-65.5 24.2-65.5-.4.6 5-13.6 8-22.4l4.1 20.3s11.6 56.2 14.1 67.6h-50.4z" fill="#00579f"/>
  <path d="M233.3 100.3l-59.1 159.5-6.3-32.4c-11-37.2-45.2-77.5-83.5-97.6l54 203.5 63.8-.1 95-232.9h-63.9z" fill="#00579f"/>
  <path d="M131.9 100.3H34.8l-.8 4.5c75.7 19.3 125.8 66.1 146.6 122.2L159.5 120c-3.6-14.8-14.1-19.2-27.6-19.7z" fill="#faa61a"/>
</svg>
